<svg version="1.1" xmlns="http://www.w3.org/2000/svg" xmlns:xlink="http://www.w3.org/1999/xlink" width="861.6021" height="646.5931" viewBox="0,0,861.6021,646.5931"><g transform="translate(110.80105,143.79655)"><g data-paper-data="{&quot;isPaintingLayer&quot;:true}" fill-rule="nonzero" stroke="none" stroke-width="0" stroke-linecap="butt" stroke-linejoin="miter" stroke-miterlimit="10" stroke-dasharray="" stroke-dashoffset="0" style="mix-blend-mode: normal"><g><g><g><g><g><path d="M427.63438,287.08483v-27.16667h27.16667v27.16667z" fill="#1b203e"/><path d="M454.63438,287.08484v-27.16667h27.16667v27.16667z" fill="#44519a"/><path d="M454.63438,260.08484v-27.16667h27.16667v27.16667z" data-paper-data="{&quot;index&quot;:null}" fill="#1b203e"/><path d="M427.63438,260.08484v-27.16667h27.16667v27.16667z" data-paper-data="{&quot;index&quot;:null}" fill="#44519a"/></g><g><path d="M481.63438,287.08484v-27.16667h27.16667v27.16667z" fill="#1b203e"/><path d="M508.63438,287.08484v-27.16667h27.16667v27.16667z" fill="#44519a"/><path d="M508.63438,260.08484v-27.16667h27.16667v27.16667z" data-paper-data="{&quot;index&quot;:null}" fill="#1b203e"/><path d="M481.63438,260.08484v-27.16667h27.16667v27.16667z" data-paper-data="{&quot;index&quot;:null}" fill="#44519a"/></g><g><path d="M319.88438,287.08484v-27.16667h27.16667v27.16667z" fill="#1b203e"/><path d="M346.88438,287.08484v-27.16667h27.16667v27.16667z" fill="#44519a"/><path d="M346.88438,260.08484v-27.16667h27.16667v27.16667z" data-paper-data="{&quot;index&quot;:null}" fill="#1b203e"/><path d="M319.88438,260.08484v-27.16667h27.16667v27.16667z" data-paper-data="{&quot;index&quot;:null}" fill="#44519a"/></g><g><path d="M373.88438,287.08484v-27.16667h27.16667v27.16667z" fill="#1b203e"/><path d="M400.88438,287.08484v-27.16667h27.16667v27.16667z" fill="#44519a"/><path d="M400.88438,260.08484v-27.16667h27.16667v27.16667z" data-paper-data="{&quot;index&quot;:null}" fill="#1b203e"/><path d="M373.88438,260.08484v-27.16667h27.16667v27.16667z" data-paper-data="{&quot;index&quot;:null}" fill="#44519a"/></g><g><path d="M427.38438,233.08484v-27.16667h27.16667v27.16667z" fill="#1b203e"/><path d="M454.38438,233.08484v-27.16667h27.16667v27.16667z" fill="#44519a"/><path d="M454.38438,206.08484v-27.16667h27.16667v27.16667z" data-paper-data="{&quot;index&quot;:null}" fill="#1b203e"/><path d="M427.38438,206.08484v-27.16667h27.16667v27.16667z" data-paper-data="{&quot;index&quot;:null}" fill="#44519a"/></g><g><path d="M481.38438,233.08484v-27.16667h27.16667v27.16667z" fill="#1b203e"/><path d="M508.38438,233.08484v-27.16667h27.16667v27.16667z" fill="#44519a"/><path d="M508.38438,206.08484v-27.16667h27.16667v27.16667z" data-paper-data="{&quot;index&quot;:null}" fill="#1b203e"/><path d="M481.38438,206.08484v-27.16667h27.16667v27.16667z" data-paper-data="{&quot;index&quot;:null}" fill="#44519a"/></g><g><path d="M319.63438,233.08484v-27.16667h27.16667v27.16667z" fill="#1b203e"/><path d="M346.63438,233.08484v-27.16667h27.16667v27.16667z" fill="#44519a"/><path d="M346.63438,206.08484v-27.16667h27.16667v27.16667z" data-paper-data="{&quot;index&quot;:null}" fill="#1b203e"/><path d="M319.63438,206.08484v-27.16667h27.16667v27.16667z" data-paper-data="{&quot;index&quot;:null}" fill="#44519a"/></g><g><path d="M373.63438,233.08484v-27.16667h27.16667v27.16667z" fill="#1b203e"/><path d="M400.63438,233.08484v-27.16667h27.16667v27.16667z" fill="#44519a"/><path d="M400.63438,206.08484v-27.16667h27.16667v27.16667z" data-paper-data="{&quot;index&quot;:null}" fill="#1b203e"/><path d="M373.63438,206.08484v-27.16667h27.16667v27.16667z" data-paper-data="{&quot;index&quot;:null}" fill="#44519a"/></g></g><g><g><path d="M427.63438,179.08484v-27.16667h27.16667v27.16667z" fill="#1b203e"/><path d="M454.63438,179.08484v-27.16667h27.16667v27.16667z" fill="#44519a"/><path d="M454.63438,152.08484v-27.16667h27.16667v27.16667z" data-paper-data="{&quot;index&quot;:null}" fill="#1b203e"/><path d="M427.63438,152.08484v-27.16667h27.16667v27.16667z" data-paper-data="{&quot;index&quot;:null}" fill="#44519a"/></g><g><path d="M481.63438,179.08484v-27.16667h27.16667v27.16667z" fill="#1b203e"/><path d="M508.63438,179.08484v-27.16667h27.16667v27.16667z" fill="#44519a"/><path d="M508.63438,152.08484v-27.16667h27.16667v27.16667z" data-paper-data="{&quot;index&quot;:null}" fill="#1b203e"/><path d="M481.63438,152.08484v-27.16667h27.16667v27.16667z" data-paper-data="{&quot;index&quot;:null}" fill="#44519a"/></g><g><path d="M319.88438,179.08484v-27.16667h27.16667v27.16667z" fill="#1b203e"/><path d="M346.88438,179.08484v-27.16667h27.16667v27.16667z" fill="#44519a"/><path d="M346.88438,152.08484v-27.16667h27.16667v27.16667z" data-paper-data="{&quot;index&quot;:null}" fill="#1b203e"/><path d="M319.88438,152.08484v-27.16667h27.16667v27.16667z" data-paper-data="{&quot;index&quot;:null}" fill="#44519a"/></g><g><path d="M373.88438,179.08484v-27.16667h27.16667v27.16667z" fill="#1b203e"/><path d="M400.88438,179.08484v-27.16667h27.16667v27.16667z" fill="#44519a"/><path d="M400.88438,152.08484v-27.16667h27.16667v27.16667z" data-paper-data="{&quot;index&quot;:null}" fill="#1b203e"/><path d="M373.88438,152.08484v-27.16667h27.16667v27.16667z" data-paper-data="{&quot;index&quot;:null}" fill="#44519a"/></g><g><path d="M427.38438,125.08484v-27.16667h27.16667v27.16667z" fill="#1b203e"/><path d="M454.38438,125.08484v-27.16667h27.16667v27.16667z" fill="#44519a"/><path d="M454.38438,98.08484v-27.16667h27.16667v27.16667z" data-paper-data="{&quot;index&quot;:null}" fill="#1b203e"/><path d="M427.38438,98.08484v-27.16667h27.16667v27.16667z" data-paper-data="{&quot;index&quot;:null}" fill="#44519a"/></g><g><path d="M481.38438,125.08484v-27.16667h27.16667v27.16667z" fill="#1b203e"/><path d="M508.38438,125.08484v-27.16667h27.16667v27.16667z" fill="#44519a"/><path d="M508.38438,98.08484v-27.16667h27.16667v27.16667z" data-paper-data="{&quot;index&quot;:null}" fill="#1b203e"/><path d="M481.38438,98.08484v-27.16667h27.16667v27.16667z" data-paper-data="{&quot;index&quot;:null}" fill="#44519a"/></g><g><path d="M319.63438,125.08484v-27.16667h27.16667v27.16667z" fill="#1b203e"/><path d="M346.63438,125.08484v-27.16667h27.16667v27.16667z" fill="#44519a"/><path d="M346.63438,98.08484v-27.16667h27.16667v27.16667z" data-paper-data="{&quot;index&quot;:null}" fill="#1b203e"/><path d="M319.63438,98.08484v-27.16667h27.16667v27.16667z" data-paper-data="{&quot;index&quot;:null}" fill="#44519a"/></g><g><path d="M373.63438,125.08484v-27.16667h27.16667v27.16667z" fill="#1b203e"/><path d="M400.63438,125.08484v-27.16667h27.16667v27.16667z" fill="#44519a"/><path d="M400.63438,98.08484v-27.16667h27.16667v27.16667z" data-paper-data="{&quot;index&quot;:null}" fill="#1b203e"/><path d="M373.63438,98.08484v-27.16667h27.16667v27.16667z" data-paper-data="{&quot;index&quot;:null}" fill="#44519a"/></g></g></g><g><g><g><path d="M642.63438,287.08484v-27.16667h27.16667v27.16667z" fill="#1b203e"/><path d="M669.63438,287.08484v-27.16667h27.16667v27.16667z" fill="#44519a"/><path d="M669.63438,260.08484v-27.16667h27.16667v27.16667z" data-paper-data="{&quot;index&quot;:null}" fill="#1b203e"/><path d="M642.63438,260.08484v-27.16667h27.16667v27.16667z" data-paper-data="{&quot;index&quot;:null}" fill="#44519a"/></g><g><path d="M696.63438,287.08484v-27.16667h27.16667v27.16667z" fill="#1b203e"/><path d="M723.63438,287.08484v-27.16667h27.16667v27.16667z" fill="#44519a"/><path d="M723.63438,260.08484v-27.16667h27.16667v27.16667z" data-paper-data="{&quot;index&quot;:null}" fill="#1b203e"/><path d="M696.63438,260.08484v-27.16667h27.16667v27.16667z" data-paper-data="{&quot;index&quot;:null}" fill="#44519a"/></g><g><path d="M534.88438,287.08484v-27.16667h27.16667v27.16667z" fill="#1b203e"/><path d="M561.88438,287.08484v-27.16667h27.16667v27.16667z" fill="#44519a"/><path d="M561.88438,260.08484v-27.16667h27.16667v27.16667z" data-paper-data="{&quot;index&quot;:null}" fill="#1b203e"/><path d="M534.88438,260.08484v-27.16667h27.16667v27.16667z" data-paper-data="{&quot;index&quot;:null}" fill="#44519a"/></g><g><path d="M588.88438,287.08484v-27.16667h27.16667v27.16667z" fill="#1b203e"/><path d="M615.88438,287.08484v-27.16667h27.16667v27.16667z" fill="#44519a"/><path d="M615.88438,260.08484v-27.16667h27.16667v27.16667z" data-paper-data="{&quot;index&quot;:null}" fill="#1b203e"/><path d="M588.88438,260.08484v-27.16667h27.16667v27.16667z" data-paper-data="{&quot;index&quot;:null}" fill="#44519a"/></g><g><path d="M642.38438,233.08484v-27.16667h27.16667v27.16667z" fill="#1b203e"/><path d="M669.38438,233.08484v-27.16667h27.16667v27.16667z" fill="#44519a"/><path d="M669.38438,206.08484v-27.16667h27.16667v27.16667z" data-paper-data="{&quot;index&quot;:null}" fill="#1b203e"/><path d="M642.38438,206.08484v-27.16667h27.16667v27.16667z" data-paper-data="{&quot;index&quot;:null}" fill="#44519a"/></g><g><path d="M696.38438,233.08484v-27.16667h27.16667v27.16667z" fill="#1b203e"/><path d="M723.38438,233.08484v-27.16667h27.16667v27.16667z" fill="#44519a"/><path d="M723.38438,206.08484v-27.16667h27.16667v27.16667z" data-paper-data="{&quot;index&quot;:null}" fill="#1b203e"/><path d="M696.38438,206.08484v-27.16667h27.16667v27.16667z" data-paper-data="{&quot;index&quot;:null}" fill="#44519a"/></g><g><path d="M534.63438,233.08484v-27.16667h27.16667v27.16667z" fill="#1b203e"/><path d="M561.63438,233.08484v-27.16667h27.16667v27.16667z" fill="#44519a"/><path d="M561.63438,206.08484v-27.16667h27.16667v27.16667z" data-paper-data="{&quot;index&quot;:null}" fill="#1b203e"/><path d="M534.63438,206.08484v-27.16667h27.16667v27.16667z" data-paper-data="{&quot;index&quot;:null}" fill="#44519a"/></g><g><path d="M588.63438,233.08484v-27.16667h27.16667v27.16667z" fill="#1b203e"/><path d="M615.63438,233.08484v-27.16667h27.16667v27.16667z" fill="#44519a"/><path d="M615.63438,206.08484v-27.16667h27.16667v27.16667z" data-paper-data="{&quot;index&quot;:null}" fill="#1b203e"/><path d="M588.63438,206.08484v-27.16667h27.16667v27.16667z" data-paper-data="{&quot;index&quot;:null}" fill="#44519a"/></g></g><g><g><path d="M642.63438,179.08484v-27.16667h27.16667v27.16667z" fill="#1b203e"/><path d="M669.63438,179.08484v-27.16667h27.16667v27.16667z" fill="#44519a"/><path d="M669.63438,152.08484v-27.16667h27.16667v27.16667z" data-paper-data="{&quot;index&quot;:null}" fill="#1b203e"/><path d="M642.63438,152.08484v-27.16667h27.16667v27.16667z" data-paper-data="{&quot;index&quot;:null}" fill="#44519a"/></g><g><path d="M696.63438,179.08484v-27.16667h27.16667v27.16667z" fill="#1b203e"/><path d="M723.63438,179.08484v-27.16667h27.16667v27.16667z" fill="#44519a"/><path d="M723.63438,152.08484v-27.16667h27.16667v27.16667z" data-paper-data="{&quot;index&quot;:null}" fill="#1b203e"/><path d="M696.63438,152.08484v-27.16667h27.16667v27.16667z" data-paper-data="{&quot;index&quot;:null}" fill="#44519a"/></g><g><path d="M534.88438,179.08484v-27.16667h27.16667v27.16667z" fill="#1b203e"/><path d="M561.88438,179.08484v-27.16667h27.16667v27.16667z" fill="#44519a"/><path d="M561.88438,152.08484v-27.16667h27.16667v27.16667z" data-paper-data="{&quot;index&quot;:null}" fill="#1b203e"/><path d="M534.88438,152.08484v-27.16667h27.16667v27.16667z" data-paper-data="{&quot;index&quot;:null}" fill="#44519a"/></g><g><path d="M588.88438,179.08484v-27.16667h27.16667v27.16667z" fill="#1b203e"/><path d="M615.88438,179.08484v-27.16667h27.16667v27.16667z" fill="#44519a"/><path d="M615.88438,152.08484v-27.16667h27.16667v27.16667z" data-paper-data="{&quot;index&quot;:null}" fill="#1b203e"/><path d="M588.88438,152.08484v-27.16667h27.16667v27.16667z" data-paper-data="{&quot;index&quot;:null}" fill="#44519a"/></g><g><path d="M642.38438,125.08484v-27.16667h27.16667v27.16667z" fill="#1b203e"/><path d="M669.38438,125.08484v-27.16667h27.16667v27.16667z" fill="#44519a"/><path d="M669.38438,98.08484v-27.16667h27.16667v27.16667z" data-paper-data="{&quot;index&quot;:null}" fill="#1b203e"/><path d="M642.38438,98.08484v-27.16667h27.16667v27.16667z" data-paper-data="{&quot;index&quot;:null}" fill="#44519a"/></g><g><path d="M696.38438,125.08484v-27.16667h27.16667v27.16667z" fill="#1b203e"/><path d="M723.38438,125.08484v-27.16667h27.16667v27.16667z" fill="#44519a"/><path d="M723.38438,98.08484v-27.16667h27.16667v27.16667z" data-paper-data="{&quot;index&quot;:null}" fill="#1b203e"/><path d="M696.38438,98.08484v-27.16667h27.16667v27.16667z" data-paper-data="{&quot;index&quot;:null}" fill="#44519a"/></g><g><path d="M534.63438,125.08484v-27.16667h27.16667v27.16667z" fill="#1b203e"/><path d="M561.63438,125.08484v-27.16667h27.16667v27.16667z" fill="#44519a"/><path d="M561.63438,98.08484v-27.16667h27.16667v27.16667z" data-paper-data="{&quot;index&quot;:null}" fill="#1b203e"/><path d="M534.63438,98.08484v-27.16667h27.16667v27.16667z" data-paper-data="{&quot;index&quot;:null}" fill="#44519a"/></g><g><path d="M588.63438,125.08484v-27.16667h27.16667v27.16667z" fill="#1b203e"/><path d="M615.63438,125.08484v-27.16667h27.16667v27.16667z" fill="#44519a"/><path d="M615.63438,98.08484v-27.16667h27.16667v27.16667z" data-paper-data="{&quot;index&quot;:null}" fill="#1b203e"/><path d="M588.63438,98.08484v-27.16667h27.16667v27.16667z" data-paper-data="{&quot;index&quot;:null}" fill="#44519a"/></g></g></g></g><g><g><g><g><path d="M-2.80105,287.58033v-27.16667h27.16667v27.16667z" fill="#1b203e"/><path d="M24.19895,287.58033v-27.16667h27.16667v27.16667z" fill="#44519a"/><path d="M24.19895,260.58033v-27.16667h27.16667v27.16667z" data-paper-data="{&quot;index&quot;:null}" fill="#1b203e"/><path d="M-2.80105,260.58033v-27.16667h27.16667v27.16667z" data-paper-data="{&quot;index&quot;:null}" fill="#44519a"/></g><g><path d="M51.19895,287.58033v-27.16667h27.16667v27.16667z" fill="#1b203e"/><path d="M78.19895,287.58033v-27.16667h27.16667v27.16667z" fill="#44519a"/><path d="M78.19895,260.58033v-27.16667h27.16667v27.16667z" data-paper-data="{&quot;index&quot;:null}" fill="#1b203e"/><path d="M51.19895,260.58033v-27.16667h27.16667v27.16667z" data-paper-data="{&quot;index&quot;:null}" fill="#44519a"/></g><g><path d="M-110.55105,287.58033v-27.16667h27.16667v27.16667z" fill="#1b203e"/><path d="M-83.55105,287.58033v-27.16667h27.16667v27.16667z" fill="#44519a"/><path d="M-83.55105,260.58033v-27.16667h27.16667v27.16667z" data-paper-data="{&quot;index&quot;:null}" fill="#1b203e"/><path d="M-110.55105,260.58033v-27.16667h27.16667v27.16667z" data-paper-data="{&quot;index&quot;:null}" fill="#44519a"/></g><g><path d="M-56.55105,287.58033v-27.16667h27.16667v27.16667z" fill="#1b203e"/><path d="M-29.55105,287.58033v-27.16667h27.16667v27.16667z" fill="#44519a"/><path d="M-29.55105,260.58033v-27.16667h27.16667v27.16667z" data-paper-data="{&quot;index&quot;:null}" fill="#1b203e"/><path d="M-56.55105,260.58033v-27.16667h27.16667v27.16667z" data-paper-data="{&quot;index&quot;:null}" fill="#44519a"/></g><g><path d="M-3.05105,233.58033v-27.16667h27.16667v27.16667z" fill="#1b203e"/><path d="M23.94895,233.58033v-27.16667h27.16667v27.16667z" fill="#44519a"/><path d="M23.94895,206.58033v-27.16667h27.16667v27.16667z" data-paper-data="{&quot;index&quot;:null}" fill="#1b203e"/><path d="M-3.05105,206.58033v-27.16667h27.16667v27.16667z" data-paper-data="{&quot;index&quot;:null}" fill="#44519a"/></g><g><path d="M50.94895,233.58033v-27.16667h27.16667v27.16667z" fill="#1b203e"/><path d="M77.94895,233.58033v-27.16667h27.16667v27.16667z" fill="#44519a"/><path d="M77.94895,206.58033v-27.16667h27.16667v27.16667z" data-paper-data="{&quot;index&quot;:null}" fill="#1b203e"/><path d="M50.94895,206.58033v-27.16667h27.16667v27.16667z" data-paper-data="{&quot;index&quot;:null}" fill="#44519a"/></g><g><path d="M-110.80105,233.58033v-27.16667h27.16667v27.16667z" fill="#1b203e"/><path d="M-83.80105,233.58033v-27.16667h27.16667v27.16667z" fill="#44519a"/><path d="M-83.80105,206.58033v-27.16667h27.16667v27.16667z" data-paper-data="{&quot;index&quot;:null}" fill="#1b203e"/><path d="M-110.80105,206.58033v-27.16667h27.16667v27.16667z" data-paper-data="{&quot;index&quot;:null}" fill="#44519a"/></g><g><path d="M-56.80105,233.58033v-27.16667h27.16667v27.16667z" fill="#1b203e"/><path d="M-29.80105,233.58033v-27.16667h27.16667v27.16667z" fill="#44519a"/><path d="M-29.80105,206.58033v-27.16667h27.16667v27.16667z" data-paper-data="{&quot;index&quot;:null}" fill="#1b203e"/><path d="M-56.80105,206.58033v-27.16667h27.16667v27.16667z" data-paper-data="{&quot;index&quot;:null}" fill="#44519a"/></g></g><g><g><path d="M-2.80105,179.58033v-27.16667h27.16667v27.16667z" fill="#1b203e"/><path d="M24.19895,179.58033v-27.16667h27.16667v27.16667z" fill="#44519a"/><path d="M24.19895,152.58033v-27.16667h27.16667v27.16667z" data-paper-data="{&quot;index&quot;:null}" fill="#1b203e"/><path d="M-2.80105,152.58033v-27.16667h27.16667v27.16667z" data-paper-data="{&quot;index&quot;:null}" fill="#44519a"/></g><g><path d="M51.19895,179.58033v-27.16667h27.16667v27.16667z" fill="#1b203e"/><path d="M78.19895,179.58033v-27.16667h27.16667v27.16667z" fill="#44519a"/><path d="M78.19895,152.58033v-27.16667h27.16667v27.16667z" data-paper-data="{&quot;index&quot;:null}" fill="#1b203e"/><path d="M51.19895,152.58033v-27.16667h27.16667v27.16667z" data-paper-data="{&quot;index&quot;:null}" fill="#44519a"/></g><g><path d="M-110.55105,179.58033v-27.16667h27.16667v27.16667z" fill="#1b203e"/><path d="M-83.55105,179.58033v-27.16667h27.16667v27.16667z" fill="#44519a"/><path d="M-83.55105,152.58033v-27.16667h27.16667v27.16667z" data-paper-data="{&quot;index&quot;:null}" fill="#1b203e"/><path d="M-110.55105,152.58033v-27.16667h27.16667v27.16667z" data-paper-data="{&quot;index&quot;:null}" fill="#44519a"/></g><g><path d="M-56.55105,179.58033v-27.16667h27.16667v27.16667z" fill="#1b203e"/><path d="M-29.55105,179.58033v-27.16667h27.16667v27.16667z" fill="#44519a"/><path d="M-29.55105,152.58033v-27.16667h27.16667v27.16667z" data-paper-data="{&quot;index&quot;:null}" fill="#1b203e"/><path d="M-56.55105,152.58033v-27.16667h27.16667v27.16667z" data-paper-data="{&quot;index&quot;:null}" fill="#44519a"/></g><g><path d="M-3.05105,125.58033v-27.16667h27.16667v27.16667z" fill="#1b203e"/><path d="M23.94895,125.58033v-27.16667h27.16667v27.16667z" fill="#44519a"/><path d="M23.94895,98.58033v-27.16667h27.16667v27.16667z" data-paper-data="{&quot;index&quot;:null}" fill="#1b203e"/><path d="M-3.05105,98.58033v-27.16667h27.16667v27.16667z" data-paper-data="{&quot;index&quot;:null}" fill="#44519a"/></g><g><path d="M50.94895,125.58033v-27.16667h27.16667v27.16667z" fill="#1b203e"/><path d="M77.94895,125.58033v-27.16667h27.16667v27.16667z" fill="#44519a"/><path d="M77.94895,98.58033v-27.16667h27.16667v27.16667z" data-paper-data="{&quot;index&quot;:null}" fill="#1b203e"/><path d="M50.94895,98.58033v-27.16667h27.16667v27.16667z" data-paper-data="{&quot;index&quot;:null}" fill="#44519a"/></g><g><path d="M-110.80105,125.58033v-27.16667h27.16667v27.16667z" fill="#1b203e"/><path d="M-83.80105,125.58033v-27.16667h27.16667v27.16667z" fill="#44519a"/><path d="M-83.80105,98.58033v-27.16667h27.16667v27.16667z" data-paper-data="{&quot;index&quot;:null}" fill="#1b203e"/><path d="M-110.80105,98.58033v-27.16667h27.16667v27.16667z" data-paper-data="{&quot;index&quot;:null}" fill="#44519a"/></g><g><path d="M-56.80105,125.58033v-27.16667h27.16667v27.16667z" fill="#1b203e"/><path d="M-29.80105,125.58033v-27.16667h27.16667v27.16667z" fill="#44519a"/><path d="M-29.80105,98.58033v-27.16667h27.16667v27.16667z" data-paper-data="{&quot;index&quot;:null}" fill="#1b203e"/><path d="M-56.80105,98.58033v-27.16667h27.16667v27.16667z" data-paper-data="{&quot;index&quot;:null}" fill="#44519a"/></g></g></g><g><g><g><path d="M212.19895,287.58033v-27.16667h27.16667v27.16667z" fill="#1b203e"/><path d="M239.19895,287.58033v-27.16667h27.16667v27.16667z" fill="#44519a"/><path d="M239.19895,260.58033v-27.16667h27.16667v27.16667z" data-paper-data="{&quot;index&quot;:null}" fill="#1b203e"/><path d="M212.19895,260.58033v-27.16667h27.16667v27.16667z" data-paper-data="{&quot;index&quot;:null}" fill="#44519a"/></g><g><path d="M266.19895,287.58033v-27.16667h27.16667v27.16667z" fill="#1b203e"/><path d="M293.19895,287.58033v-27.16667h27.16667v27.16667z" fill="#44519a"/><path d="M293.19895,260.58033v-27.16667h27.16667v27.16667z" data-paper-data="{&quot;index&quot;:null}" fill="#1b203e"/><path d="M266.19895,260.58033v-27.16667h27.16667v27.16667z" data-paper-data="{&quot;index&quot;:null}" fill="#44519a"/></g><g><path d="M104.44895,287.58033v-27.16667h27.16667v27.16667z" fill="#1b203e"/><path d="M131.44895,287.58033v-27.16667h27.16667v27.16667z" fill="#44519a"/><path d="M131.44895,260.58033v-27.16667h27.16667v27.16667z" data-paper-data="{&quot;index&quot;:null}" fill="#1b203e"/><path d="M104.44895,260.58033v-27.16667h27.16667v27.16667z" data-paper-data="{&quot;index&quot;:null}" fill="#44519a"/></g><g><path d="M158.44895,287.58033v-27.16667h27.16667v27.16667z" fill="#1b203e"/><path d="M185.44895,287.58033v-27.16667h27.16667v27.16667z" fill="#44519a"/><path d="M185.44895,260.58033v-27.16667h27.16667v27.16667z" data-paper-data="{&quot;index&quot;:null}" fill="#1b203e"/><path d="M158.44895,260.58033v-27.16667h27.16667v27.16667z" data-paper-data="{&quot;index&quot;:null}" fill="#44519a"/></g><g><path d="M211.94895,233.58033v-27.16667h27.16667v27.16667z" fill="#1b203e"/><path d="M238.94895,233.58033v-27.16667h27.16667v27.16667z" fill="#44519a"/><path d="M238.94895,206.58033v-27.16667h27.16667v27.16667z" data-paper-data="{&quot;index&quot;:null}" fill="#1b203e"/><path d="M211.94895,206.58033v-27.16667h27.16667v27.16667z" data-paper-data="{&quot;index&quot;:null}" fill="#44519a"/></g><g><path d="M265.94895,233.58033v-27.16667h27.16667v27.16667z" fill="#1b203e"/><path d="M292.94895,233.58033v-27.16667h27.16667v27.16667z" fill="#44519a"/><path d="M292.94895,206.58033v-27.16667h27.16667v27.16667z" data-paper-data="{&quot;index&quot;:null}" fill="#1b203e"/><path d="M265.94895,206.58033v-27.16667h27.16667v27.16667z" data-paper-data="{&quot;index&quot;:null}" fill="#44519a"/></g><g><path d="M104.19895,233.58033v-27.16667h27.16667v27.16667z" fill="#1b203e"/><path d="M131.19895,233.58033v-27.16667h27.16667v27.16667z" fill="#44519a"/><path d="M131.19895,206.58033v-27.16667h27.16667v27.16667z" data-paper-data="{&quot;index&quot;:null}" fill="#1b203e"/><path d="M104.19895,206.58033v-27.16667h27.16667v27.16667z" data-paper-data="{&quot;index&quot;:null}" fill="#44519a"/></g><g><path d="M158.19895,233.58033v-27.16667h27.16667v27.16667z" fill="#1b203e"/><path d="M185.19895,233.58033v-27.16667h27.16667v27.16667z" fill="#44519a"/><path d="M185.19895,206.58033v-27.16667h27.16667v27.16667z" data-paper-data="{&quot;index&quot;:null}" fill="#1b203e"/><path d="M158.19895,206.58033v-27.16667h27.16667v27.16667z" data-paper-data="{&quot;index&quot;:null}" fill="#44519a"/></g></g><g><g><path d="M212.19895,179.58033v-27.16667h27.16667v27.16667z" fill="#1b203e"/><path d="M239.19895,179.58033v-27.16667h27.16667v27.16667z" fill="#44519a"/><path d="M239.19895,152.58033v-27.16667h27.16667v27.16667z" data-paper-data="{&quot;index&quot;:null}" fill="#1b203e"/><path d="M212.19895,152.58033v-27.16667h27.16667v27.16667z" data-paper-data="{&quot;index&quot;:null}" fill="#44519a"/></g><g><path d="M266.19895,179.58033v-27.16667h27.16667v27.16667z" fill="#1b203e"/><path d="M293.19895,179.58033v-27.16667h27.16667v27.16667z" fill="#44519a"/><path d="M293.19895,152.58033v-27.16667h27.16667v27.16667z" data-paper-data="{&quot;index&quot;:null}" fill="#1b203e"/><path d="M266.19895,152.58033v-27.16667h27.16667v27.16667z" data-paper-data="{&quot;index&quot;:null}" fill="#44519a"/></g><g><path d="M104.44895,179.58033v-27.16667h27.16667v27.16667z" fill="#1b203e"/><path d="M131.44895,179.58033v-27.16667h27.16667v27.16667z" fill="#44519a"/><path d="M131.44895,152.58033v-27.16667h27.16667v27.16667z" data-paper-data="{&quot;index&quot;:null}" fill="#1b203e"/><path d="M104.44895,152.58033v-27.16667h27.16667v27.16667z" data-paper-data="{&quot;index&quot;:null}" fill="#44519a"/></g><g><path d="M158.44895,179.58033v-27.16667h27.16667v27.16667z" fill="#1b203e"/><path d="M185.44895,179.58033v-27.16667h27.16667v27.16667z" fill="#44519a"/><path d="M185.44895,152.58033v-27.16667h27.16667v27.16667z" data-paper-data="{&quot;index&quot;:null}" fill="#1b203e"/><path d="M158.44895,152.58033v-27.16667h27.16667v27.16667z" data-paper-data="{&quot;index&quot;:null}" fill="#44519a"/></g><g><path d="M211.94895,125.58033v-27.16667h27.16667v27.16667z" fill="#1b203e"/><path d="M238.94895,125.58033v-27.16667h27.16667v27.16667z" fill="#44519a"/><path d="M238.94895,98.58033v-27.16667h27.16667v27.16667z" data-paper-data="{&quot;index&quot;:null}" fill="#1b203e"/><path d="M211.94895,98.58033v-27.16667h27.16667v27.16667z" data-paper-data="{&quot;index&quot;:null}" fill="#44519a"/></g><g><path d="M265.94895,125.58033v-27.16667h27.16667v27.16667z" fill="#1b203e"/><path d="M292.94895,125.58033v-27.16667h27.16667v27.16667z" fill="#44519a"/><path d="M292.94895,98.58033v-27.16667h27.16667v27.16667z" data-paper-data="{&quot;index&quot;:null}" fill="#1b203e"/><path d="M265.94895,98.58033v-27.16667h27.16667v27.16667z" data-paper-data="{&quot;index&quot;:null}" fill="#44519a"/></g><g><path d="M104.19895,125.58033v-27.16667h27.16667v27.16667z" fill="#1b203e"/><path d="M131.19895,125.58033v-27.16667h27.16667v27.16667z" fill="#44519a"/><path d="M131.19895,98.58033v-27.16667h27.16667v27.16667z" data-paper-data="{&quot;index&quot;:null}" fill="#1b203e"/><path d="M104.19895,98.58033v-27.16667h27.16667v27.16667z" data-paper-data="{&quot;index&quot;:null}" fill="#44519a"/></g><g><path d="M158.19895,125.58033v-27.16667h27.16667v27.16667z" fill="#1b203e"/><path d="M185.19895,125.58033v-27.16667h27.16667v27.16667z" fill="#44519a"/><path d="M185.19895,98.58033v-27.16667h27.16667v27.16667z" data-paper-data="{&quot;index&quot;:null}" fill="#1b203e"/><path d="M158.19895,98.58033v-27.16667h27.16667v27.16667z" data-paper-data="{&quot;index&quot;:null}" fill="#44519a"/></g></g></g></g></g><g><g><g><g><g><path d="M427.63439,72.37012v-27.16666h27.16666v27.16666z" fill="#1b203e"/><path d="M454.63438,72.37012v-27.16667h27.16667v27.16667z" fill="#44519a"/><path d="M454.63439,45.37012v-27.16667h27.16667v27.16667z" data-paper-data="{&quot;index&quot;:null}" fill="#1b203e"/><path d="M427.63439,45.37012v-27.16667h27.16667v27.16667z" data-paper-data="{&quot;index&quot;:null}" fill="#44519a"/></g><g><path d="M481.63439,72.37012v-27.16667h27.16667v27.16667z" fill="#1b203e"/><path d="M508.63439,72.37012v-27.16667h27.16667v27.16667z" fill="#44519a"/><path d="M508.63439,45.37012v-27.16667h27.16667v27.16667z" data-paper-data="{&quot;index&quot;:null}" fill="#1b203e"/><path d="M481.63439,45.37012v-27.16667h27.16667v27.16667z" data-paper-data="{&quot;index&quot;:null}" fill="#44519a"/></g><g><path d="M319.88439,72.37012v-27.16667h27.16667v27.16667z" fill="#1b203e"/><path d="M346.88439,72.37012v-27.16667h27.16667v27.16667z" fill="#44519a"/><path d="M346.88439,45.37012v-27.16667h27.16667v27.16667z" data-paper-data="{&quot;index&quot;:null}" fill="#1b203e"/><path d="M319.88439,45.37012v-27.16667h27.16667v27.16667z" data-paper-data="{&quot;index&quot;:null}" fill="#44519a"/></g><g><path d="M373.88439,72.37012v-27.16667h27.16667v27.16667z" fill="#1b203e"/><path d="M400.88439,72.37012v-27.16667h27.16667v27.16667z" fill="#44519a"/><path d="M400.88439,45.37012v-27.16667h27.16667v27.16667z" data-paper-data="{&quot;index&quot;:null}" fill="#1b203e"/><path d="M373.88439,45.37012v-27.16667h27.16667v27.16667z" data-paper-data="{&quot;index&quot;:null}" fill="#44519a"/></g><g><path d="M427.38439,18.37012v-27.16667h27.16667v27.16667z" fill="#1b203e"/><path d="M454.38439,18.37012v-27.16667h27.16667v27.16667z" fill="#44519a"/><path d="M454.38439,-8.62988v-27.16667h27.16667v27.16667z" data-paper-data="{&quot;index&quot;:null}" fill="#1b203e"/><path d="M427.38439,-8.62988v-27.16667h27.16667v27.16667z" data-paper-data="{&quot;index&quot;:null}" fill="#44519a"/></g><g><path d="M481.38439,18.37012v-27.16667h27.16667v27.16667z" fill="#1b203e"/><path d="M508.38439,18.37012v-27.16667h27.16667v27.16667z" fill="#44519a"/><path d="M508.38439,-8.62988v-27.16667h27.16667v27.16667z" data-paper-data="{&quot;index&quot;:null}" fill="#1b203e"/><path d="M481.38439,-8.62988v-27.16667h27.16667v27.16667z" data-paper-data="{&quot;index&quot;:null}" fill="#44519a"/></g><g><path d="M319.63439,18.37012v-27.16667h27.16667v27.16667z" fill="#1b203e"/><path d="M346.63439,18.37012v-27.16667h27.16667v27.16667z" fill="#44519a"/><path d="M346.63439,-8.62988v-27.16667h27.16667v27.16667z" data-paper-data="{&quot;index&quot;:null}" fill="#1b203e"/><path d="M319.63439,-8.62988v-27.16667h27.16667v27.16667z" data-paper-data="{&quot;index&quot;:null}" fill="#44519a"/></g><g><path d="M373.63439,18.37012v-27.16667h27.16667v27.16667z" fill="#1b203e"/><path d="M400.63439,18.37012v-27.16667h27.16667v27.16667z" fill="#44519a"/><path d="M400.63439,-8.62988v-27.16667h27.16667v27.16667z" data-paper-data="{&quot;index&quot;:null}" fill="#1b203e"/><path d="M373.63439,-8.62988v-27.16667h27.16667v27.16667z" data-paper-data="{&quot;index&quot;:null}" fill="#44519a"/></g></g><g><g><path d="M427.63439,-35.62988v-27.16667h27.16667v27.16667z" fill="#1b203e"/><path d="M454.63439,-35.62988v-27.16667h27.16667v27.16667z" fill="#44519a"/><path d="M454.63439,-62.62988v-27.16667h27.16667v27.16667z" data-paper-data="{&quot;index&quot;:null}" fill="#1b203e"/><path d="M427.63439,-62.62988v-27.16667h27.16667v27.16667z" data-paper-data="{&quot;index&quot;:null}" fill="#44519a"/></g><g><path d="M481.63439,-35.62988v-27.16667h27.16667v27.16667z" fill="#1b203e"/><path d="M508.63439,-35.62988v-27.16667h27.16667v27.16667z" fill="#44519a"/><path d="M508.63439,-62.62988v-27.16667h27.16667v27.16667z" data-paper-data="{&quot;index&quot;:null}" fill="#1b203e"/><path d="M481.63439,-62.62988v-27.16667h27.16667v27.16667z" data-paper-data="{&quot;index&quot;:null}" fill="#44519a"/></g><g><path d="M319.88439,-35.62988v-27.16667h27.16667v27.16667z" fill="#1b203e"/><path d="M346.88439,-35.62988v-27.16667h27.16667v27.16667z" fill="#44519a"/><path d="M346.88439,-62.62988v-27.16667h27.16667v27.16667z" data-paper-data="{&quot;index&quot;:null}" fill="#1b203e"/><path d="M319.88439,-62.62988v-27.16667h27.16667v27.16667z" data-paper-data="{&quot;index&quot;:null}" fill="#44519a"/></g><g><path d="M373.88439,-35.62988v-27.16667h27.16667v27.16667z" fill="#1b203e"/><path d="M400.88439,-35.62988v-27.16667h27.16667v27.16667z" fill="#44519a"/><path d="M400.88439,-62.62988v-27.16667h27.16667v27.16667z" data-paper-data="{&quot;index&quot;:null}" fill="#1b203e"/><path d="M373.88439,-62.62988v-27.16667h27.16667v27.16667z" data-paper-data="{&quot;index&quot;:null}" fill="#44519a"/></g><g><path d="M427.38439,-89.62988v-27.16667h27.16667v27.16667z" fill="#1b203e"/><path d="M454.38439,-89.62988v-27.16667h27.16667v27.16667z" fill="#44519a"/><path d="M454.38439,-116.62988v-27.16667h27.16667v27.16667z" data-paper-data="{&quot;index&quot;:null}" fill="#1b203e"/><path d="M427.38439,-116.62988v-27.16667h27.16667v27.16667z" data-paper-data="{&quot;index&quot;:null}" fill="#44519a"/></g><g><path d="M481.38439,-89.62988v-27.16667h27.16667v27.16667z" fill="#1b203e"/><path d="M508.38439,-89.62988v-27.16667h27.16667v27.16667z" fill="#44519a"/><path d="M508.38439,-116.62988v-27.16667h27.16667v27.16667z" data-paper-data="{&quot;index&quot;:null}" fill="#1b203e"/><path d="M481.38439,-116.62988v-27.16667h27.16667v27.16667z" data-paper-data="{&quot;index&quot;:null}" fill="#44519a"/></g><g><path d="M319.63439,-89.62988v-27.16667h27.16667v27.16667z" fill="#1b203e"/><path d="M346.63439,-89.62988v-27.16667h27.16667v27.16667z" fill="#44519a"/><path d="M346.63439,-116.62988v-27.16667h27.16667v27.16667z" data-paper-data="{&quot;index&quot;:null}" fill="#1b203e"/><path d="M319.63439,-116.62988v-27.16667h27.16667v27.16667z" data-paper-data="{&quot;index&quot;:null}" fill="#44519a"/></g><g><path d="M373.63439,-89.62988v-27.16667h27.16667v27.16667z" fill="#1b203e"/><path d="M400.63439,-89.62988v-27.16667h27.16667v27.16667z" fill="#44519a"/><path d="M400.63439,-116.62988v-27.16667h27.16667v27.16667z" data-paper-data="{&quot;index&quot;:null}" fill="#1b203e"/><path d="M373.63439,-116.62988v-27.16667h27.16667v27.16667z" data-paper-data="{&quot;index&quot;:null}" fill="#44519a"/></g></g></g><g><g><g><path d="M642.63438,72.37012v-27.16667h27.16667v27.16667z" fill="#1b203e"/><path d="M669.63438,72.37012v-27.16667h27.16667v27.16667z" fill="#44519a"/><path d="M669.63438,45.37012v-27.16667h27.16667v27.16667z" data-paper-data="{&quot;index&quot;:null}" fill="#1b203e"/><path d="M642.63438,45.37012v-27.16667h27.16667v27.16667z" data-paper-data="{&quot;index&quot;:null}" fill="#44519a"/></g><g><path d="M696.63438,72.37012v-27.16667h27.16667v27.16667z" fill="#1b203e"/><path d="M723.63438,72.37012v-27.16667h27.16667v27.16667z" fill="#44519a"/><path d="M723.63438,45.37012v-27.16667h27.16667v27.16667z" data-paper-data="{&quot;index&quot;:null}" fill="#1b203e"/><path d="M696.63438,45.37012v-27.16667h27.16667v27.16667z" data-paper-data="{&quot;index&quot;:null}" fill="#44519a"/></g><g><path d="M534.88438,72.37012v-27.16667h27.16667v27.16667z" fill="#1b203e"/><path d="M561.88438,72.37012v-27.16667h27.16667v27.16667z" fill="#44519a"/><path d="M561.88438,45.37012v-27.16667h27.16667v27.16667z" data-paper-data="{&quot;index&quot;:null}" fill="#1b203e"/><path d="M534.88438,45.37012v-27.16667h27.16667v27.16667z" data-paper-data="{&quot;index&quot;:null}" fill="#44519a"/></g><g><path d="M588.88438,72.37012v-27.16667h27.16667v27.16667z" fill="#1b203e"/><path d="M615.88438,72.37012v-27.16667h27.16667v27.16667z" fill="#44519a"/><path d="M615.88438,45.37012v-27.16667h27.16667v27.16667z" data-paper-data="{&quot;index&quot;:null}" fill="#1b203e"/><path d="M588.88438,45.37012v-27.16667h27.16667v27.16667z" data-paper-data="{&quot;index&quot;:null}" fill="#44519a"/></g><g><path d="M642.38438,18.37012v-27.16667h27.16667v27.16667z" fill="#1b203e"/><path d="M669.38438,18.37012v-27.16667h27.16667v27.16667z" fill="#44519a"/><path d="M669.38438,-8.62988v-27.16667h27.16667v27.16667z" data-paper-data="{&quot;index&quot;:null}" fill="#1b203e"/><path d="M642.38438,-8.62988v-27.16667h27.16667v27.16667z" data-paper-data="{&quot;index&quot;:null}" fill="#44519a"/></g><g><path d="M696.38438,18.37012v-27.16667h27.16667v27.16667z" fill="#1b203e"/><path d="M723.38438,18.37012v-27.16667h27.16667v27.16667z" fill="#44519a"/><path d="M723.38438,-8.62988v-27.16667h27.16667v27.16667z" data-paper-data="{&quot;index&quot;:null}" fill="#1b203e"/><path d="M696.38438,-8.62988v-27.16667h27.16667v27.16667z" data-paper-data="{&quot;index&quot;:null}" fill="#44519a"/></g><g><path d="M534.63438,18.37012v-27.16667h27.16667v27.16667z" fill="#1b203e"/><path d="M561.63438,18.37012v-27.16667h27.16667v27.16667z" fill="#44519a"/><path d="M561.63438,-8.62988v-27.16667h27.16667v27.16667z" data-paper-data="{&quot;index&quot;:null}" fill="#1b203e"/><path d="M534.63438,-8.62988v-27.16667h27.16667v27.16667z" data-paper-data="{&quot;index&quot;:null}" fill="#44519a"/></g><g><path d="M588.63438,18.37012v-27.16667h27.16667v27.16667z" fill="#1b203e"/><path d="M615.63438,18.37012v-27.16667h27.16667v27.16667z" fill="#44519a"/><path d="M615.63438,-8.62988v-27.16667h27.16667v27.16667z" data-paper-data="{&quot;index&quot;:null}" fill="#1b203e"/><path d="M588.63438,-8.62988v-27.16667h27.16667v27.16667z" data-paper-data="{&quot;index&quot;:null}" fill="#44519a"/></g></g><g><g><path d="M642.63438,-35.62988v-27.16667h27.16667v27.16667z" fill="#1b203e"/><path d="M669.63438,-35.62988v-27.16667h27.16667v27.16667z" fill="#44519a"/><path d="M669.63438,-62.62988v-27.16667h27.16667v27.16667z" data-paper-data="{&quot;index&quot;:null}" fill="#1b203e"/><path d="M642.63438,-62.62988v-27.16667h27.16667v27.16667z" data-paper-data="{&quot;index&quot;:null}" fill="#44519a"/></g><g><path d="M696.63438,-35.62988v-27.16667h27.16667v27.16667z" fill="#1b203e"/><path d="M723.63438,-35.62988v-27.16667h27.16667v27.16667z" fill="#44519a"/><path d="M723.63438,-62.62988v-27.16667h27.16667v27.16667z" data-paper-data="{&quot;index&quot;:null}" fill="#1b203e"/><path d="M696.63438,-62.62988v-27.16667h27.16667v27.16667z" data-paper-data="{&quot;index&quot;:null}" fill="#44519a"/></g><g><path d="M534.88438,-35.62988v-27.16667h27.16667v27.16667z" fill="#1b203e"/><path d="M561.88438,-35.62988v-27.16667h27.16667v27.16667z" fill="#44519a"/><path d="M561.88438,-62.62988v-27.16667h27.16667v27.16667z" data-paper-data="{&quot;index&quot;:null}" fill="#1b203e"/><path d="M534.88438,-62.62988v-27.16667h27.16667v27.16667z" data-paper-data="{&quot;index&quot;:null}" fill="#44519a"/></g><g><path d="M588.88438,-35.62988v-27.16667h27.16667v27.16667z" fill="#1b203e"/><path d="M615.88438,-35.62988v-27.16667h27.16667v27.16667z" fill="#44519a"/><path d="M615.88438,-62.62988v-27.16667h27.16667v27.16667z" data-paper-data="{&quot;index&quot;:null}" fill="#1b203e"/><path d="M588.88438,-62.62988v-27.16667h27.16667v27.16667z" data-paper-data="{&quot;index&quot;:null}" fill="#44519a"/></g><g><path d="M642.38438,-89.62988v-27.16667h27.16667v27.16667z" fill="#1b203e"/><path d="M669.38438,-89.62988v-27.16667h27.16667v27.16667z" fill="#44519a"/><path d="M669.38438,-116.62988v-27.16667h27.16667v27.16667z" data-paper-data="{&quot;index&quot;:null}" fill="#1b203e"/><path d="M642.38438,-116.62988v-27.16667h27.16667v27.16667z" data-paper-data="{&quot;index&quot;:null}" fill="#44519a"/></g><g><path d="M696.38438,-89.62988v-27.16667h27.16667v27.16667z" fill="#1b203e"/><path d="M723.38438,-89.62988v-27.16667h27.16667v27.16667z" fill="#44519a"/><path d="M723.38438,-116.62988v-27.16667h27.16667v27.16667z" data-paper-data="{&quot;index&quot;:null}" fill="#1b203e"/><path d="M696.38438,-116.62988v-27.16667h27.16667v27.16667z" data-paper-data="{&quot;index&quot;:null}" fill="#44519a"/></g><g><path d="M534.63438,-89.62988v-27.16667h27.16667v27.16667z" fill="#1b203e"/><path d="M561.63438,-89.62988v-27.16667h27.16667v27.16667z" fill="#44519a"/><path d="M561.63438,-116.62988v-27.16667h27.16667v27.16667z" data-paper-data="{&quot;index&quot;:null}" fill="#1b203e"/><path d="M534.63438,-116.62988v-27.16667h27.16667v27.16667z" data-paper-data="{&quot;index&quot;:null}" fill="#44519a"/></g><g><path d="M588.63438,-89.62988v-27.16667h27.16667v27.16667z" fill="#1b203e"/><path d="M615.63438,-89.62988v-27.16667h27.16667v27.16667z" fill="#44519a"/><path d="M615.63438,-116.62988v-27.16667h27.16667v27.16667z" data-paper-data="{&quot;index&quot;:null}" fill="#1b203e"/><path d="M588.63438,-116.62988v-27.16667h27.16667v27.16667z" data-paper-data="{&quot;index&quot;:null}" fill="#44519a"/></g></g></g></g><g><g><g><g><path d="M-2.80105,72.86562v-27.16667h27.16667v27.16667z" fill="#1b203e"/><path d="M24.19895,72.86562v-27.16667h27.16667v27.16667z" fill="#44519a"/><path d="M24.19895,45.86562v-27.16667h27.16667v27.16667z" data-paper-data="{&quot;index&quot;:null}" fill="#1b203e"/><path d="M-2.80105,45.86562v-27.16667h27.16667v27.16667z" data-paper-data="{&quot;index&quot;:null}" fill="#44519a"/></g><g><path d="M51.19895,72.86562v-27.16667h27.16667v27.16667z" fill="#1b203e"/><path d="M78.19895,72.86562v-27.16667h27.16667v27.16667z" fill="#44519a"/><path d="M78.19895,45.86562v-27.16667h27.16667v27.16667z" data-paper-data="{&quot;index&quot;:null}" fill="#1b203e"/><path d="M51.19895,45.86562v-27.16667h27.16667v27.16667z" data-paper-data="{&quot;index&quot;:null}" fill="#44519a"/></g><g><path d="M-110.55105,72.86562v-27.16667h27.16667v27.16667z" fill="#1b203e"/><path d="M-83.55105,72.86562v-27.16667h27.16667v27.16667z" fill="#44519a"/><path d="M-83.55105,45.86562v-27.16667h27.16667v27.16667z" data-paper-data="{&quot;index&quot;:null}" fill="#1b203e"/><path d="M-110.55105,45.86562v-27.16667h27.16667v27.16667z" data-paper-data="{&quot;index&quot;:null}" fill="#44519a"/></g><g><path d="M-56.55105,72.86562v-27.16667h27.16667v27.16667z" fill="#1b203e"/><path d="M-29.55105,72.86562v-27.16667h27.16667v27.16667z" fill="#44519a"/><path d="M-29.55105,45.86562v-27.16667h27.16667v27.16667z" data-paper-data="{&quot;index&quot;:null}" fill="#1b203e"/><path d="M-56.55105,45.86562v-27.16667h27.16667v27.16667z" data-paper-data="{&quot;index&quot;:null}" fill="#44519a"/></g><g><path d="M-3.05105,18.86562v-27.16667h27.16667v27.16667z" fill="#1b203e"/><path d="M23.94895,18.86562v-27.16667h27.16667v27.16667z" fill="#44519a"/><path d="M23.94895,-8.13438v-27.16667h27.16667v27.16667z" data-paper-data="{&quot;index&quot;:null}" fill="#1b203e"/><path d="M-3.05105,-8.13438v-27.16667h27.16667v27.16667z" data-paper-data="{&quot;index&quot;:null}" fill="#44519a"/></g><g><path d="M50.94895,18.86562v-27.16667h27.16667v27.16667z" fill="#1b203e"/><path d="M77.94895,18.86562v-27.16667h27.16667v27.16667z" fill="#44519a"/><path d="M77.94895,-8.13438v-27.16667h27.16667v27.16667z" data-paper-data="{&quot;index&quot;:null}" fill="#1b203e"/><path d="M50.94895,-8.13438v-27.16667h27.16667v27.16667z" data-paper-data="{&quot;index&quot;:null}" fill="#44519a"/></g><g><path d="M-110.80105,18.86562v-27.16667h27.16667v27.16667z" fill="#1b203e"/><path d="M-83.80105,18.86562v-27.16667h27.16667v27.16667z" fill="#44519a"/><path d="M-83.80105,-8.13438v-27.16667h27.16667v27.16667z" data-paper-data="{&quot;index&quot;:null}" fill="#1b203e"/><path d="M-110.80105,-8.13438v-27.16667h27.16667v27.16667z" data-paper-data="{&quot;index&quot;:null}" fill="#44519a"/></g><g><path d="M-56.80105,18.86562v-27.16667h27.16667v27.16667z" fill="#1b203e"/><path d="M-29.80105,18.86562v-27.16667h27.16667v27.16667z" fill="#44519a"/><path d="M-29.80105,-8.13438v-27.16667h27.16667v27.16667z" data-paper-data="{&quot;index&quot;:null}" fill="#1b203e"/><path d="M-56.80105,-8.13438v-27.16667h27.16667v27.16667z" data-paper-data="{&quot;index&quot;:null}" fill="#44519a"/></g></g><g><g><path d="M-2.80105,-35.13438v-27.16667h27.16667v27.16667z" fill="#1b203e"/><path d="M24.19895,-35.13438v-27.16667h27.16667v27.16667z" fill="#44519a"/><path d="M24.19895,-62.13438v-27.16667h27.16667v27.16667z" data-paper-data="{&quot;index&quot;:null}" fill="#1b203e"/><path d="M-2.80105,-62.13438v-27.16667h27.16667v27.16667z" data-paper-data="{&quot;index&quot;:null}" fill="#44519a"/></g><g><path d="M51.19895,-35.13438v-27.16667h27.16667v27.16667z" fill="#1b203e"/><path d="M78.19895,-35.13438v-27.16667h27.16667v27.16667z" fill="#44519a"/><path d="M78.19895,-62.13438v-27.16667h27.16667v27.16667z" data-paper-data="{&quot;index&quot;:null}" fill="#1b203e"/><path d="M51.19895,-62.13438v-27.16667h27.16667v27.16667z" data-paper-data="{&quot;index&quot;:null}" fill="#44519a"/></g><g><path d="M-110.55105,-35.13438v-27.16667h27.16667v27.16667z" fill="#1b203e"/><path d="M-83.55105,-35.13438v-27.16667h27.16667v27.16667z" fill="#44519a"/><path d="M-83.55105,-62.13438v-27.16667h27.16667v27.16667z" data-paper-data="{&quot;index&quot;:null}" fill="#1b203e"/><path d="M-110.55105,-62.13438v-27.16667h27.16667v27.16667z" data-paper-data="{&quot;index&quot;:null}" fill="#44519a"/></g><g><path d="M-56.55105,-35.13438v-27.16667h27.16667v27.16667z" fill="#1b203e"/><path d="M-29.55105,-35.13438v-27.16667h27.16667v27.16667z" fill="#44519a"/><path d="M-29.55105,-62.13438v-27.16667h27.16667v27.16667z" data-paper-data="{&quot;index&quot;:null}" fill="#1b203e"/><path d="M-56.55105,-62.13438v-27.16667h27.16667v27.16667z" data-paper-data="{&quot;index&quot;:null}" fill="#44519a"/></g><g><path d="M-3.05105,-89.13438v-27.16667h27.16667v27.16667z" fill="#1b203e"/><path d="M23.94895,-89.13438v-27.16667h27.16667v27.16667z" fill="#44519a"/><path d="M23.94895,-116.13438v-27.16667h27.16667v27.16667z" data-paper-data="{&quot;index&quot;:null}" fill="#1b203e"/><path d="M-3.05105,-116.13438v-27.16667h27.16667v27.16667z" data-paper-data="{&quot;index&quot;:null}" fill="#44519a"/></g><g><path d="M50.94895,-89.13438v-27.16667h27.16667v27.16667z" fill="#1b203e"/><path d="M77.94895,-89.13438v-27.16667h27.16667v27.16667z" fill="#44519a"/><path d="M77.94895,-116.13438v-27.16667h27.16667v27.16667z" data-paper-data="{&quot;index&quot;:null}" fill="#1b203e"/><path d="M50.94895,-116.13438v-27.16667h27.16667v27.16667z" data-paper-data="{&quot;index&quot;:null}" fill="#44519a"/></g><g><path d="M-110.80105,-89.13438v-27.16667h27.16667v27.16667z" fill="#1b203e"/><path d="M-83.80105,-89.13438v-27.16667h27.16667v27.16667z" fill="#44519a"/><path d="M-83.80105,-116.13438v-27.16667h27.16667v27.16667z" data-paper-data="{&quot;index&quot;:null}" fill="#1b203e"/><path d="M-110.80105,-116.13438v-27.16667h27.16667v27.16667z" data-paper-data="{&quot;index&quot;:null}" fill="#44519a"/></g><g><path d="M-56.80105,-89.13438v-27.16667h27.16667v27.16667z" fill="#1b203e"/><path d="M-29.80105,-89.13438v-27.16667h27.16667v27.16667z" fill="#44519a"/><path d="M-29.80105,-116.13438v-27.16667h27.16667v27.16667z" data-paper-data="{&quot;index&quot;:null}" fill="#1b203e"/><path d="M-56.80105,-116.13438v-27.16667h27.16667v27.16667z" data-paper-data="{&quot;index&quot;:null}" fill="#44519a"/></g></g></g><g><g><g><path d="M212.19895,72.86562v-27.16667h27.16667v27.16667z" fill="#1b203e"/><path d="M239.19895,72.86562v-27.16667h27.16667v27.16667z" fill="#44519a"/><path d="M239.19895,45.86562v-27.16667h27.16667v27.16667z" data-paper-data="{&quot;index&quot;:null}" fill="#1b203e"/><path d="M212.19895,45.86562v-27.16667h27.16667v27.16667z" data-paper-data="{&quot;index&quot;:null}" fill="#44519a"/></g><g><path d="M266.19895,72.86562v-27.16667h27.16667v27.16667z" fill="#1b203e"/><path d="M293.19895,72.86562v-27.16667h27.16667v27.16667z" fill="#44519a"/><path d="M293.19895,45.86562v-27.16667h27.16667v27.16667z" data-paper-data="{&quot;index&quot;:null}" fill="#1b203e"/><path d="M266.19895,45.86562v-27.16667h27.16667v27.16667z" data-paper-data="{&quot;index&quot;:null}" fill="#44519a"/></g><g><path d="M104.44895,72.86562v-27.16667h27.16667v27.16667z" fill="#1b203e"/><path d="M131.44895,72.86562v-27.16667h27.16667v27.16667z" fill="#44519a"/><path d="M131.44895,45.86562v-27.16667h27.16667v27.16667z" data-paper-data="{&quot;index&quot;:null}" fill="#1b203e"/><path d="M104.44895,45.86562v-27.16667h27.16667v27.16667z" data-paper-data="{&quot;index&quot;:null}" fill="#44519a"/></g><g><path d="M158.44895,72.86562v-27.16667h27.16667v27.16667z" fill="#1b203e"/><path d="M185.44895,72.86562v-27.16667h27.16667v27.16667z" fill="#44519a"/><path d="M185.44895,45.86562v-27.16667h27.16667v27.16667z" data-paper-data="{&quot;index&quot;:null}" fill="#1b203e"/><path d="M158.44895,45.86562v-27.16667h27.16667v27.16667z" data-paper-data="{&quot;index&quot;:null}" fill="#44519a"/></g><g><path d="M211.94895,18.86562v-27.16667h27.16667v27.16667z" fill="#1b203e"/><path d="M238.94895,18.86562v-27.16667h27.16667v27.16667z" fill="#44519a"/><path d="M238.94895,-8.13438v-27.16667h27.16667v27.16667z" data-paper-data="{&quot;index&quot;:null}" fill="#1b203e"/><path d="M211.94895,-8.13438v-27.16667h27.16667v27.16667z" data-paper-data="{&quot;index&quot;:null}" fill="#44519a"/></g><g><path d="M265.94895,18.86562v-27.16667h27.16667v27.16667z" fill="#1b203e"/><path d="M292.94895,18.86562v-27.16667h27.16667v27.16667z" fill="#44519a"/><path d="M292.94895,-8.13438v-27.16667h27.16667v27.16667z" data-paper-data="{&quot;index&quot;:null}" fill="#1b203e"/><path d="M265.94895,-8.13438v-27.16667h27.16667v27.16667z" data-paper-data="{&quot;index&quot;:null}" fill="#44519a"/></g><g><path d="M104.19895,18.86562v-27.16667h27.16667v27.16667z" fill="#1b203e"/><path d="M131.19895,18.86562v-27.16667h27.16667v27.16667z" fill="#44519a"/><path d="M131.19895,-8.13438v-27.16667h27.16667v27.16667z" data-paper-data="{&quot;index&quot;:null}" fill="#1b203e"/><path d="M104.19895,-8.13438v-27.16667h27.16667v27.16667z" data-paper-data="{&quot;index&quot;:null}" fill="#44519a"/></g><g><path d="M158.19895,18.86562v-27.16667h27.16667v27.16667z" fill="#1b203e"/><path d="M185.19895,18.86562v-27.16667h27.16667v27.16667z" fill="#44519a"/><path d="M185.19895,-8.13438v-27.16667h27.16667v27.16667z" data-paper-data="{&quot;index&quot;:null}" fill="#1b203e"/><path d="M158.19895,-8.13438v-27.16667h27.16667v27.16667z" data-paper-data="{&quot;index&quot;:null}" fill="#44519a"/></g></g><g><g><path d="M212.19895,-35.13438v-27.16667h27.16667v27.16667z" fill="#1b203e"/><path d="M239.19895,-35.13438v-27.16667h27.16667v27.16667z" fill="#44519a"/><path d="M239.19895,-62.13438v-27.16667h27.16667v27.16667z" data-paper-data="{&quot;index&quot;:null}" fill="#1b203e"/><path d="M212.19895,-62.13438v-27.16667h27.16667v27.16667z" data-paper-data="{&quot;index&quot;:null}" fill="#44519a"/></g><g><path d="M266.19895,-35.13438v-27.16667h27.16667v27.16667z" fill="#1b203e"/><path d="M293.19895,-35.13438v-27.16667h27.16667v27.16667z" fill="#44519a"/><path d="M293.19895,-62.13438v-27.16667h27.16667v27.16667z" data-paper-data="{&quot;index&quot;:null}" fill="#1b203e"/><path d="M266.19895,-62.13438v-27.16667h27.16667v27.16667z" data-paper-data="{&quot;index&quot;:null}" fill="#44519a"/></g><g><path d="M104.44895,-35.13438v-27.16667h27.16667v27.16667z" fill="#1b203e"/><path d="M131.44895,-35.13438v-27.16667h27.16667v27.16667z" fill="#44519a"/><path d="M131.44895,-62.13438v-27.16667h27.16667v27.16667z" data-paper-data="{&quot;index&quot;:null}" fill="#1b203e"/><path d="M104.44895,-62.13438v-27.16667h27.16667v27.16667z" data-paper-data="{&quot;index&quot;:null}" fill="#44519a"/></g><g><path d="M158.44895,-35.13438v-27.16667h27.16667v27.16667z" fill="#1b203e"/><path d="M185.44895,-35.13438v-27.16667h27.16667v27.16667z" fill="#44519a"/><path d="M185.44895,-62.13438v-27.16667h27.16667v27.16667z" data-paper-data="{&quot;index&quot;:null}" fill="#1b203e"/><path d="M158.44895,-62.13438v-27.16667h27.16667v27.16667z" data-paper-data="{&quot;index&quot;:null}" fill="#44519a"/></g><g><path d="M211.94895,-89.13438v-27.16667h27.16667v27.16667z" fill="#1b203e"/><path d="M238.94895,-89.13438v-27.16667h27.16667v27.16667z" fill="#44519a"/><path d="M238.94895,-116.13438v-27.16667h27.16667v27.16667z" data-paper-data="{&quot;index&quot;:null}" fill="#1b203e"/><path d="M211.94895,-116.13438v-27.16667h27.16667v27.16667z" data-paper-data="{&quot;index&quot;:null}" fill="#44519a"/></g><g><path d="M265.94895,-89.13438v-27.16667h27.16667v27.16667z" fill="#1b203e"/><path d="M292.94895,-89.13438v-27.16667h27.16667v27.16667z" fill="#44519a"/><path d="M292.94895,-116.13438v-27.16667h27.16667v27.16667z" data-paper-data="{&quot;index&quot;:null}" fill="#1b203e"/><path d="M265.94895,-116.13438v-27.16667h27.16667v27.16667z" data-paper-data="{&quot;index&quot;:null}" fill="#44519a"/></g><g><path d="M104.19895,-89.13438v-27.16667h27.16667v27.16667z" fill="#1b203e"/><path d="M131.19895,-89.13438v-27.16667h27.16667v27.16667z" fill="#44519a"/><path d="M131.19895,-116.13438v-27.16667h27.16667v27.16667z" data-paper-data="{&quot;index&quot;:null}" fill="#1b203e"/><path d="M104.19895,-116.13438v-27.16667h27.16667v27.16667z" data-paper-data="{&quot;index&quot;:null}" fill="#44519a"/></g><g><path d="M158.19895,-89.13438v-27.16667h27.16667v27.16667z" fill="#1b203e"/><path d="M185.19895,-89.13438v-27.16667h27.16667v27.16667z" fill="#44519a"/><path d="M185.19895,-116.13438v-27.16667h27.16667v27.16667z" data-paper-data="{&quot;index&quot;:null}" fill="#1b203e"/><path d="M158.19895,-116.13438v-27.16667h27.16667v27.16667z" data-paper-data="{&quot;index&quot;:null}" fill="#44519a"/></g></g></g></g></g><g><g><g><g><g><path d="M427.63439,502.30105v-27.16666h27.16666v27.16666z" fill="#1b203e"/><path d="M454.63438,502.30105v-27.16667h27.16667v27.16667z" fill="#44519a"/><path d="M454.63439,475.30105v-27.16667h27.16667v27.16667z" data-paper-data="{&quot;index&quot;:null}" fill="#1b203e"/><path d="M427.63439,475.30105v-27.16667h27.16667v27.16667z" data-paper-data="{&quot;index&quot;:null}" fill="#44519a"/></g><g><path d="M481.63439,502.30105v-27.16667h27.16667v27.16667z" fill="#1b203e"/><path d="M508.63439,502.30105v-27.16667h27.16667v27.16667z" fill="#44519a"/><path d="M508.63439,475.30105v-27.16667h27.16667v27.16667z" data-paper-data="{&quot;index&quot;:null}" fill="#1b203e"/><path d="M481.63439,475.30105v-27.16667h27.16667v27.16667z" data-paper-data="{&quot;index&quot;:null}" fill="#44519a"/></g><g><path d="M319.88439,502.30105v-27.16667h27.16667v27.16667z" fill="#1b203e"/><path d="M346.88439,502.30105v-27.16667h27.16667v27.16667z" fill="#44519a"/><path d="M346.88439,475.30105v-27.16667h27.16667v27.16667z" data-paper-data="{&quot;index&quot;:null}" fill="#1b203e"/><path d="M319.88439,475.30105v-27.16667h27.16667v27.16667z" data-paper-data="{&quot;index&quot;:null}" fill="#44519a"/></g><g><path d="M373.88439,502.30105v-27.16667h27.16667v27.16667z" fill="#1b203e"/><path d="M400.88439,502.30105v-27.16667h27.16667v27.16667z" fill="#44519a"/><path d="M400.88439,475.30105v-27.16667h27.16667v27.16667z" data-paper-data="{&quot;index&quot;:null}" fill="#1b203e"/><path d="M373.88439,475.30105v-27.16667h27.16667v27.16667z" data-paper-data="{&quot;index&quot;:null}" fill="#44519a"/></g><g><path d="M427.38439,448.30105v-27.16667h27.16667v27.16667z" fill="#1b203e"/><path d="M454.38439,448.30105v-27.16667h27.16667v27.16667z" fill="#44519a"/><path d="M454.38439,421.30105v-27.16667h27.16667v27.16667z" data-paper-data="{&quot;index&quot;:null}" fill="#1b203e"/><path d="M427.38439,421.30105v-27.16667h27.16667v27.16667z" data-paper-data="{&quot;index&quot;:null}" fill="#44519a"/></g><g><path d="M481.38439,448.30105v-27.16667h27.16667v27.16667z" fill="#1b203e"/><path d="M508.38439,448.30105v-27.16667h27.16667v27.16667z" fill="#44519a"/><path d="M508.38439,421.30105v-27.16667h27.16667v27.16667z" data-paper-data="{&quot;index&quot;:null}" fill="#1b203e"/><path d="M481.38439,421.30105v-27.16667h27.16667v27.16667z" data-paper-data="{&quot;index&quot;:null}" fill="#44519a"/></g><g><path d="M319.63439,448.30105v-27.16667h27.16667v27.16667z" fill="#1b203e"/><path d="M346.63439,448.30105v-27.16667h27.16667v27.16667z" fill="#44519a"/><path d="M346.63439,421.30105v-27.16667h27.16667v27.16667z" data-paper-data="{&quot;index&quot;:null}" fill="#1b203e"/><path d="M319.63439,421.30105v-27.16667h27.16667v27.16667z" data-paper-data="{&quot;index&quot;:null}" fill="#44519a"/></g><g><path d="M373.63439,448.30105v-27.16667h27.16667v27.16667z" fill="#1b203e"/><path d="M400.63439,448.30105v-27.16667h27.16667v27.16667z" fill="#44519a"/><path d="M400.63439,421.30105v-27.16667h27.16667v27.16667z" data-paper-data="{&quot;index&quot;:null}" fill="#1b203e"/><path d="M373.63439,421.30105v-27.16667h27.16667v27.16667z" data-paper-data="{&quot;index&quot;:null}" fill="#44519a"/></g></g><g><g><path d="M427.63439,394.30105v-27.16667h27.16667v27.16667z" fill="#1b203e"/><path d="M454.63439,394.30105v-27.16667h27.16667v27.16667z" fill="#44519a"/><path d="M454.63439,367.30105v-27.16667h27.16667v27.16667z" data-paper-data="{&quot;index&quot;:null}" fill="#1b203e"/><path d="M427.63439,367.30105v-27.16667h27.16667v27.16667z" data-paper-data="{&quot;index&quot;:null}" fill="#44519a"/></g><g><path d="M481.63439,394.30105v-27.16667h27.16667v27.16667z" fill="#1b203e"/><path d="M508.63439,394.30105v-27.16667h27.16667v27.16667z" fill="#44519a"/><path d="M508.63439,367.30105v-27.16667h27.16667v27.16667z" data-paper-data="{&quot;index&quot;:null}" fill="#1b203e"/><path d="M481.63439,367.30105v-27.16667h27.16667v27.16667z" data-paper-data="{&quot;index&quot;:null}" fill="#44519a"/></g><g><path d="M319.88439,394.30105v-27.16667h27.16667v27.16667z" fill="#1b203e"/><path d="M346.88439,394.30105v-27.16667h27.16667v27.16667z" fill="#44519a"/><path d="M346.88439,367.30105v-27.16667h27.16667v27.16667z" data-paper-data="{&quot;index&quot;:null}" fill="#1b203e"/><path d="M319.88439,367.30105v-27.16667h27.16667v27.16667z" data-paper-data="{&quot;index&quot;:null}" fill="#44519a"/></g><g><path d="M373.88439,394.30105v-27.16667h27.16667v27.16667z" fill="#1b203e"/><path d="M400.88439,394.30105v-27.16667h27.16667v27.16667z" fill="#44519a"/><path d="M400.88439,367.30105v-27.16667h27.16667v27.16667z" data-paper-data="{&quot;index&quot;:null}" fill="#1b203e"/><path d="M373.88439,367.30105v-27.16667h27.16667v27.16667z" data-paper-data="{&quot;index&quot;:null}" fill="#44519a"/></g><g><path d="M427.38439,340.30105v-27.16667h27.16667v27.16667z" fill="#1b203e"/><path d="M454.38439,340.30105v-27.16667h27.16667v27.16667z" fill="#44519a"/><path d="M454.38439,313.30105v-27.16667h27.16667v27.16667z" data-paper-data="{&quot;index&quot;:null}" fill="#1b203e"/><path d="M427.38439,313.30105v-27.16667h27.16667v27.16667z" data-paper-data="{&quot;index&quot;:null}" fill="#44519a"/></g><g><path d="M481.38439,340.30105v-27.16667h27.16667v27.16667z" fill="#1b203e"/><path d="M508.38439,340.30105v-27.16667h27.16667v27.16667z" fill="#44519a"/><path d="M508.38439,313.30105v-27.16667h27.16667v27.16667z" data-paper-data="{&quot;index&quot;:null}" fill="#1b203e"/><path d="M481.38439,313.30105v-27.16667h27.16667v27.16667z" data-paper-data="{&quot;index&quot;:null}" fill="#44519a"/></g><g><path d="M319.63439,340.30105v-27.16667h27.16667v27.16667z" fill="#1b203e"/><path d="M346.63439,340.30105v-27.16667h27.16667v27.16667z" fill="#44519a"/><path d="M346.63439,313.30105v-27.16667h27.16667v27.16667z" data-paper-data="{&quot;index&quot;:null}" fill="#1b203e"/><path d="M319.63439,313.30105v-27.16667h27.16667v27.16667z" data-paper-data="{&quot;index&quot;:null}" fill="#44519a"/></g><g><path d="M373.63439,340.30105v-27.16667h27.16667v27.16667z" fill="#1b203e"/><path d="M400.63439,340.30105v-27.16667h27.16667v27.16667z" fill="#44519a"/><path d="M400.63439,313.30105v-27.16667h27.16667v27.16667z" data-paper-data="{&quot;index&quot;:null}" fill="#1b203e"/><path d="M373.63439,313.30105v-27.16667h27.16667v27.16667z" data-paper-data="{&quot;index&quot;:null}" fill="#44519a"/></g></g></g><g><g><g><path d="M642.63438,502.30105v-27.16667h27.16667v27.16667z" fill="#1b203e"/><path d="M669.63438,502.30105v-27.16667h27.16667v27.16667z" fill="#44519a"/><path d="M669.63438,475.30105v-27.16667h27.16667v27.16667z" data-paper-data="{&quot;index&quot;:null}" fill="#1b203e"/><path d="M642.63438,475.30105v-27.16667h27.16667v27.16667z" data-paper-data="{&quot;index&quot;:null}" fill="#44519a"/></g><g><path d="M696.63438,502.30105v-27.16667h27.16667v27.16667z" fill="#1b203e"/><path d="M723.63438,502.30105v-27.16667h27.16667v27.16667z" fill="#44519a"/><path d="M723.63438,475.30105v-27.16667h27.16667v27.16667z" data-paper-data="{&quot;index&quot;:null}" fill="#1b203e"/><path d="M696.63438,475.30105v-27.16667h27.16667v27.16667z" data-paper-data="{&quot;index&quot;:null}" fill="#44519a"/></g><g><path d="M534.88438,502.30105v-27.16667h27.16667v27.16667z" fill="#1b203e"/><path d="M561.88438,502.30105v-27.16667h27.16667v27.16667z" fill="#44519a"/><path d="M561.88438,475.30105v-27.16667h27.16667v27.16667z" data-paper-data="{&quot;index&quot;:null}" fill="#1b203e"/><path d="M534.88438,475.30105v-27.16667h27.16667v27.16667z" data-paper-data="{&quot;index&quot;:null}" fill="#44519a"/></g><g><path d="M588.88438,502.30105v-27.16667h27.16667v27.16667z" fill="#1b203e"/><path d="M615.88438,502.30105v-27.16667h27.16667v27.16667z" fill="#44519a"/><path d="M615.88438,475.30105v-27.16667h27.16667v27.16667z" data-paper-data="{&quot;index&quot;:null}" fill="#1b203e"/><path d="M588.88438,475.30105v-27.16667h27.16667v27.16667z" data-paper-data="{&quot;index&quot;:null}" fill="#44519a"/></g><g><path d="M642.38438,448.30105v-27.16667h27.16667v27.16667z" fill="#1b203e"/><path d="M669.38438,448.30105v-27.16667h27.16667v27.16667z" fill="#44519a"/><path d="M669.38438,421.30105v-27.16667h27.16667v27.16667z" data-paper-data="{&quot;index&quot;:null}" fill="#1b203e"/><path d="M642.38438,421.30105v-27.16667h27.16667v27.16667z" data-paper-data="{&quot;index&quot;:null}" fill="#44519a"/></g><g><path d="M696.38438,448.30105v-27.16667h27.16667v27.16667z" fill="#1b203e"/><path d="M723.38438,448.30105v-27.16667h27.16667v27.16667z" fill="#44519a"/><path d="M723.38438,421.30105v-27.16667h27.16667v27.16667z" data-paper-data="{&quot;index&quot;:null}" fill="#1b203e"/><path d="M696.38438,421.30105v-27.16667h27.16667v27.16667z" data-paper-data="{&quot;index&quot;:null}" fill="#44519a"/></g><g><path d="M534.63438,448.30105v-27.16667h27.16667v27.16667z" fill="#1b203e"/><path d="M561.63438,448.30105v-27.16667h27.16667v27.16667z" fill="#44519a"/><path d="M561.63438,421.30105v-27.16667h27.16667v27.16667z" data-paper-data="{&quot;index&quot;:null}" fill="#1b203e"/><path d="M534.63438,421.30105v-27.16667h27.16667v27.16667z" data-paper-data="{&quot;index&quot;:null}" fill="#44519a"/></g><g><path d="M588.63438,448.30105v-27.16667h27.16667v27.16667z" fill="#1b203e"/><path d="M615.63438,448.30105v-27.16667h27.16667v27.16667z" fill="#44519a"/><path d="M615.63438,421.30105v-27.16667h27.16667v27.16667z" data-paper-data="{&quot;index&quot;:null}" fill="#1b203e"/><path d="M588.63438,421.30105v-27.16667h27.16667v27.16667z" data-paper-data="{&quot;index&quot;:null}" fill="#44519a"/></g></g><g><g><path d="M642.63438,394.30105v-27.16667h27.16667v27.16667z" fill="#1b203e"/><path d="M669.63438,394.30105v-27.16667h27.16667v27.16667z" fill="#44519a"/><path d="M669.63438,367.30105v-27.16667h27.16667v27.16667z" data-paper-data="{&quot;index&quot;:null}" fill="#1b203e"/><path d="M642.63438,367.30105v-27.16667h27.16667v27.16667z" data-paper-data="{&quot;index&quot;:null}" fill="#44519a"/></g><g><path d="M696.63438,394.30105v-27.16667h27.16667v27.16667z" fill="#1b203e"/><path d="M723.63438,394.30105v-27.16667h27.16667v27.16667z" fill="#44519a"/><path d="M723.63438,367.30105v-27.16667h27.16667v27.16667z" data-paper-data="{&quot;index&quot;:null}" fill="#1b203e"/><path d="M696.63438,367.30105v-27.16667h27.16667v27.16667z" data-paper-data="{&quot;index&quot;:null}" fill="#44519a"/></g><g><path d="M534.88438,394.30105v-27.16667h27.16667v27.16667z" fill="#1b203e"/><path d="M561.88438,394.30105v-27.16667h27.16667v27.16667z" fill="#44519a"/><path d="M561.88438,367.30105v-27.16667h27.16667v27.16667z" data-paper-data="{&quot;index&quot;:null}" fill="#1b203e"/><path d="M534.88438,367.30105v-27.16667h27.16667v27.16667z" data-paper-data="{&quot;index&quot;:null}" fill="#44519a"/></g><g><path d="M588.88438,394.30105v-27.16667h27.16667v27.16667z" fill="#1b203e"/><path d="M615.88438,394.30105v-27.16667h27.16667v27.16667z" fill="#44519a"/><path d="M615.88438,367.30105v-27.16667h27.16667v27.16667z" data-paper-data="{&quot;index&quot;:null}" fill="#1b203e"/><path d="M588.88438,367.30105v-27.16667h27.16667v27.16667z" data-paper-data="{&quot;index&quot;:null}" fill="#44519a"/></g><g><path d="M642.38438,340.30105v-27.16667h27.16667v27.16667z" fill="#1b203e"/><path d="M669.38438,340.30105v-27.16667h27.16667v27.16667z" fill="#44519a"/><path d="M669.38438,313.30105v-27.16667h27.16667v27.16667z" data-paper-data="{&quot;index&quot;:null}" fill="#1b203e"/><path d="M642.38438,313.30105v-27.16667h27.16667v27.16667z" data-paper-data="{&quot;index&quot;:null}" fill="#44519a"/></g><g><path d="M696.38438,340.30105v-27.16667h27.16667v27.16667z" fill="#1b203e"/><path d="M723.38438,340.30105v-27.16667h27.16667v27.16667z" fill="#44519a"/><path d="M723.38438,313.30105v-27.16667h27.16667v27.16667z" data-paper-data="{&quot;index&quot;:null}" fill="#1b203e"/><path d="M696.38438,313.30105v-27.16667h27.16667v27.16667z" data-paper-data="{&quot;index&quot;:null}" fill="#44519a"/></g><g><path d="M534.63438,340.30105v-27.16667h27.16667v27.16667z" fill="#1b203e"/><path d="M561.63438,340.30105v-27.16667h27.16667v27.16667z" fill="#44519a"/><path d="M561.63438,313.30105v-27.16667h27.16667v27.16667z" data-paper-data="{&quot;index&quot;:null}" fill="#1b203e"/><path d="M534.63438,313.30105v-27.16667h27.16667v27.16667z" data-paper-data="{&quot;index&quot;:null}" fill="#44519a"/></g><g><path d="M588.63438,340.30105v-27.16667h27.16667v27.16667z" fill="#1b203e"/><path d="M615.63438,340.30105v-27.16667h27.16667v27.16667z" fill="#44519a"/><path d="M615.63438,313.30105v-27.16667h27.16667v27.16667z" data-paper-data="{&quot;index&quot;:null}" fill="#1b203e"/><path d="M588.63438,313.30105v-27.16667h27.16667v27.16667z" data-paper-data="{&quot;index&quot;:null}" fill="#44519a"/></g></g></g></g><g><g><g><g><path d="M-2.80105,502.79655v-27.16667h27.16667v27.16667z" fill="#1b203e"/><path d="M24.19895,502.79655v-27.16667h27.16667v27.16667z" fill="#44519a"/><path d="M24.19895,475.79655v-27.16667h27.16667v27.16667z" data-paper-data="{&quot;index&quot;:null}" fill="#1b203e"/><path d="M-2.80105,475.79655v-27.16667h27.16667v27.16667z" data-paper-data="{&quot;index&quot;:null}" fill="#44519a"/></g><g><path d="M51.19895,502.79655v-27.16667h27.16667v27.16667z" fill="#1b203e"/><path d="M78.19895,502.79655v-27.16667h27.16667v27.16667z" fill="#44519a"/><path d="M78.19895,475.79655v-27.16667h27.16667v27.16667z" data-paper-data="{&quot;index&quot;:null}" fill="#1b203e"/><path d="M51.19895,475.79655v-27.16667h27.16667v27.16667z" data-paper-data="{&quot;index&quot;:null}" fill="#44519a"/></g><g><path d="M-110.55105,502.79655v-27.16667h27.16667v27.16667z" fill="#1b203e"/><path d="M-83.55105,502.79655v-27.16667h27.16667v27.16667z" fill="#44519a"/><path d="M-83.55105,475.79655v-27.16667h27.16667v27.16667z" data-paper-data="{&quot;index&quot;:null}" fill="#1b203e"/><path d="M-110.55105,475.79655v-27.16667h27.16667v27.16667z" data-paper-data="{&quot;index&quot;:null}" fill="#44519a"/></g><g><path d="M-56.55105,502.79655v-27.16667h27.16667v27.16667z" fill="#1b203e"/><path d="M-29.55105,502.79655v-27.16667h27.16667v27.16667z" fill="#44519a"/><path d="M-29.55105,475.79655v-27.16667h27.16667v27.16667z" data-paper-data="{&quot;index&quot;:null}" fill="#1b203e"/><path d="M-56.55105,475.79655v-27.16667h27.16667v27.16667z" data-paper-data="{&quot;index&quot;:null}" fill="#44519a"/></g><g><path d="M-3.05105,448.79655v-27.16667h27.16667v27.16667z" fill="#1b203e"/><path d="M23.94895,448.79655v-27.16667h27.16667v27.16667z" fill="#44519a"/><path d="M23.94895,421.79655v-27.16667h27.16667v27.16667z" data-paper-data="{&quot;index&quot;:null}" fill="#1b203e"/><path d="M-3.05105,421.79655v-27.16667h27.16667v27.16667z" data-paper-data="{&quot;index&quot;:null}" fill="#44519a"/></g><g><path d="M50.94895,448.79655v-27.16667h27.16667v27.16667z" fill="#1b203e"/><path d="M77.94895,448.79655v-27.16667h27.16667v27.16667z" fill="#44519a"/><path d="M77.94895,421.79655v-27.16667h27.16667v27.16667z" data-paper-data="{&quot;index&quot;:null}" fill="#1b203e"/><path d="M50.94895,421.79655v-27.16667h27.16667v27.16667z" data-paper-data="{&quot;index&quot;:null}" fill="#44519a"/></g><g><path d="M-110.80105,448.79655v-27.16667h27.16667v27.16667z" fill="#1b203e"/><path d="M-83.80105,448.79655v-27.16667h27.16667v27.16667z" fill="#44519a"/><path d="M-83.80105,421.79655v-27.16667h27.16667v27.16667z" data-paper-data="{&quot;index&quot;:null}" fill="#1b203e"/><path d="M-110.80105,421.79655v-27.16667h27.16667v27.16667z" data-paper-data="{&quot;index&quot;:null}" fill="#44519a"/></g><g><path d="M-56.80105,448.79655v-27.16667h27.16667v27.16667z" fill="#1b203e"/><path d="M-29.80105,448.79655v-27.16667h27.16667v27.16667z" fill="#44519a"/><path d="M-29.80105,421.79655v-27.16667h27.16667v27.16667z" data-paper-data="{&quot;index&quot;:null}" fill="#1b203e"/><path d="M-56.80105,421.79655v-27.16667h27.16667v27.16667z" data-paper-data="{&quot;index&quot;:null}" fill="#44519a"/></g></g><g><g><path d="M-2.80105,394.79655v-27.16667h27.16667v27.16667z" fill="#1b203e"/><path d="M24.19895,394.79655v-27.16667h27.16667v27.16667z" fill="#44519a"/><path d="M24.19895,367.79655v-27.16667h27.16667v27.16667z" data-paper-data="{&quot;index&quot;:null}" fill="#1b203e"/><path d="M-2.80105,367.79655v-27.16667h27.16667v27.16667z" data-paper-data="{&quot;index&quot;:null}" fill="#44519a"/></g><g><path d="M51.19895,394.79655v-27.16667h27.16667v27.16667z" fill="#1b203e"/><path d="M78.19895,394.79655v-27.16667h27.16667v27.16667z" fill="#44519a"/><path d="M78.19895,367.79655v-27.16667h27.16667v27.16667z" data-paper-data="{&quot;index&quot;:null}" fill="#1b203e"/><path d="M51.19895,367.79655v-27.16667h27.16667v27.16667z" data-paper-data="{&quot;index&quot;:null}" fill="#44519a"/></g><g><path d="M-110.55105,394.79655v-27.16667h27.16667v27.16667z" fill="#1b203e"/><path d="M-83.55105,394.79655v-27.16667h27.16667v27.16667z" fill="#44519a"/><path d="M-83.55105,367.79655v-27.16667h27.16667v27.16667z" data-paper-data="{&quot;index&quot;:null}" fill="#1b203e"/><path d="M-110.55105,367.79655v-27.16667h27.16667v27.16667z" data-paper-data="{&quot;index&quot;:null}" fill="#44519a"/></g><g><path d="M-56.55105,394.79655v-27.16667h27.16667v27.16667z" fill="#1b203e"/><path d="M-29.55105,394.79655v-27.16667h27.16667v27.16667z" fill="#44519a"/><path d="M-29.55105,367.79655v-27.16667h27.16667v27.16667z" data-paper-data="{&quot;index&quot;:null}" fill="#1b203e"/><path d="M-56.55105,367.79655v-27.16667h27.16667v27.16667z" data-paper-data="{&quot;index&quot;:null}" fill="#44519a"/></g><g><path d="M-3.05105,340.79655v-27.16667h27.16667v27.16667z" fill="#1b203e"/><path d="M23.94895,340.79655v-27.16667h27.16667v27.16667z" fill="#44519a"/><path d="M23.94895,313.79655v-27.16667h27.16667v27.16667z" data-paper-data="{&quot;index&quot;:null}" fill="#1b203e"/><path d="M-3.05105,313.79655v-27.16667h27.16667v27.16667z" data-paper-data="{&quot;index&quot;:null}" fill="#44519a"/></g><g><path d="M50.94895,340.79655v-27.16667h27.16667v27.16667z" fill="#1b203e"/><path d="M77.94895,340.79655v-27.16667h27.16667v27.16667z" fill="#44519a"/><path d="M77.94895,313.79655v-27.16667h27.16667v27.16667z" data-paper-data="{&quot;index&quot;:null}" fill="#1b203e"/><path d="M50.94895,313.79655v-27.16667h27.16667v27.16667z" data-paper-data="{&quot;index&quot;:null}" fill="#44519a"/></g><g><path d="M-110.80105,340.79655v-27.16667h27.16667v27.16667z" fill="#1b203e"/><path d="M-83.80105,340.79655v-27.16667h27.16667v27.16667z" fill="#44519a"/><path d="M-83.80105,313.79655v-27.16667h27.16667v27.16667z" data-paper-data="{&quot;index&quot;:null}" fill="#1b203e"/><path d="M-110.80105,313.79655v-27.16667h27.16667v27.16667z" data-paper-data="{&quot;index&quot;:null}" fill="#44519a"/></g><g><path d="M-56.80105,340.79655v-27.16667h27.16667v27.16667z" fill="#1b203e"/><path d="M-29.80105,340.79655v-27.16667h27.16667v27.16667z" fill="#44519a"/><path d="M-29.80105,313.79655v-27.16667h27.16667v27.16667z" data-paper-data="{&quot;index&quot;:null}" fill="#1b203e"/><path d="M-56.80105,313.79655v-27.16667h27.16667v27.16667z" data-paper-data="{&quot;index&quot;:null}" fill="#44519a"/></g></g></g><g><g><g><path d="M212.19895,502.79655v-27.16667h27.16667v27.16667z" fill="#1b203e"/><path d="M239.19895,502.79655v-27.16667h27.16667v27.16667z" fill="#44519a"/><path d="M239.19895,475.79655v-27.16667h27.16667v27.16667z" data-paper-data="{&quot;index&quot;:null}" fill="#1b203e"/><path d="M212.19895,475.79655v-27.16667h27.16667v27.16667z" data-paper-data="{&quot;index&quot;:null}" fill="#44519a"/></g><g><path d="M266.19895,502.79655v-27.16667h27.16667v27.16667z" fill="#1b203e"/><path d="M293.19895,502.79655v-27.16667h27.16667v27.16667z" fill="#44519a"/><path d="M293.19895,475.79655v-27.16667h27.16667v27.16667z" data-paper-data="{&quot;index&quot;:null}" fill="#1b203e"/><path d="M266.19895,475.79655v-27.16667h27.16667v27.16667z" data-paper-data="{&quot;index&quot;:null}" fill="#44519a"/></g><g><path d="M104.44895,502.79655v-27.16667h27.16667v27.16667z" fill="#1b203e"/><path d="M131.44895,502.79655v-27.16667h27.16667v27.16667z" fill="#44519a"/><path d="M131.44895,475.79655v-27.16667h27.16667v27.16667z" data-paper-data="{&quot;index&quot;:null}" fill="#1b203e"/><path d="M104.44895,475.79655v-27.16667h27.16667v27.16667z" data-paper-data="{&quot;index&quot;:null}" fill="#44519a"/></g><g><path d="M158.44895,502.79655v-27.16667h27.16667v27.16667z" fill="#1b203e"/><path d="M185.44895,502.79655v-27.16667h27.16667v27.16667z" fill="#44519a"/><path d="M185.44895,475.79655v-27.16667h27.16667v27.16667z" data-paper-data="{&quot;index&quot;:null}" fill="#1b203e"/><path d="M158.44895,475.79655v-27.16667h27.16667v27.16667z" data-paper-data="{&quot;index&quot;:null}" fill="#44519a"/></g><g><path d="M211.94895,448.79655v-27.16667h27.16667v27.16667z" fill="#1b203e"/><path d="M238.94895,448.79655v-27.16667h27.16667v27.16667z" fill="#44519a"/><path d="M238.94895,421.79655v-27.16667h27.16667v27.16667z" data-paper-data="{&quot;index&quot;:null}" fill="#1b203e"/><path d="M211.94895,421.79655v-27.16667h27.16667v27.16667z" data-paper-data="{&quot;index&quot;:null}" fill="#44519a"/></g><g><path d="M265.94895,448.79655v-27.16667h27.16667v27.16667z" fill="#1b203e"/><path d="M292.94895,448.79655v-27.16667h27.16667v27.16667z" fill="#44519a"/><path d="M292.94895,421.79655v-27.16667h27.16667v27.16667z" data-paper-data="{&quot;index&quot;:null}" fill="#1b203e"/><path d="M265.94895,421.79655v-27.16667h27.16667v27.16667z" data-paper-data="{&quot;index&quot;:null}" fill="#44519a"/></g><g><path d="M104.19895,448.79655v-27.16667h27.16667v27.16667z" fill="#1b203e"/><path d="M131.19895,448.79655v-27.16667h27.16667v27.16667z" fill="#44519a"/><path d="M131.19895,421.79655v-27.16667h27.16667v27.16667z" data-paper-data="{&quot;index&quot;:null}" fill="#1b203e"/><path d="M104.19895,421.79655v-27.16667h27.16667v27.16667z" data-paper-data="{&quot;index&quot;:null}" fill="#44519a"/></g><g><path d="M158.19895,448.79655v-27.16667h27.16667v27.16667z" fill="#1b203e"/><path d="M185.19895,448.79655v-27.16667h27.16667v27.16667z" fill="#44519a"/><path d="M185.19895,421.79655v-27.16667h27.16667v27.16667z" data-paper-data="{&quot;index&quot;:null}" fill="#1b203e"/><path d="M158.19895,421.79655v-27.16667h27.16667v27.16667z" data-paper-data="{&quot;index&quot;:null}" fill="#44519a"/></g></g><g><g><path d="M212.19895,394.79655v-27.16667h27.16667v27.16667z" fill="#1b203e"/><path d="M239.19895,394.79655v-27.16667h27.16667v27.16667z" fill="#44519a"/><path d="M239.19895,367.79655v-27.16667h27.16667v27.16667z" data-paper-data="{&quot;index&quot;:null}" fill="#1b203e"/><path d="M212.19895,367.79655v-27.16667h27.16667v27.16667z" data-paper-data="{&quot;index&quot;:null}" fill="#44519a"/></g><g><path d="M266.19895,394.79655v-27.16667h27.16667v27.16667z" fill="#1b203e"/><path d="M293.19895,394.79655v-27.16667h27.16667v27.16667z" fill="#44519a"/><path d="M293.19895,367.79655v-27.16667h27.16667v27.16667z" data-paper-data="{&quot;index&quot;:null}" fill="#1b203e"/><path d="M266.19895,367.79655v-27.16667h27.16667v27.16667z" data-paper-data="{&quot;index&quot;:null}" fill="#44519a"/></g><g><path d="M104.44895,394.79655v-27.16667h27.16667v27.16667z" fill="#1b203e"/><path d="M131.44895,394.79655v-27.16667h27.16667v27.16667z" fill="#44519a"/><path d="M131.44895,367.79655v-27.16667h27.16667v27.16667z" data-paper-data="{&quot;index&quot;:null}" fill="#1b203e"/><path d="M104.44895,367.79655v-27.16667h27.16667v27.16667z" data-paper-data="{&quot;index&quot;:null}" fill="#44519a"/></g><g><path d="M158.44895,394.79655v-27.16667h27.16667v27.16667z" fill="#1b203e"/><path d="M185.44895,394.79655v-27.16667h27.16667v27.16667z" fill="#44519a"/><path d="M185.44895,367.79655v-27.16667h27.16667v27.16667z" data-paper-data="{&quot;index&quot;:null}" fill="#1b203e"/><path d="M158.44895,367.79655v-27.16667h27.16667v27.16667z" data-paper-data="{&quot;index&quot;:null}" fill="#44519a"/></g><g><path d="M211.94895,340.79655v-27.16667h27.16667v27.16667z" fill="#1b203e"/><path d="M238.94895,340.79655v-27.16667h27.16667v27.16667z" fill="#44519a"/><path d="M238.94895,313.79655v-27.16667h27.16667v27.16667z" data-paper-data="{&quot;index&quot;:null}" fill="#1b203e"/><path d="M211.94895,313.79655v-27.16667h27.16667v27.16667z" data-paper-data="{&quot;index&quot;:null}" fill="#44519a"/></g><g><path d="M265.94895,340.79655v-27.16667h27.16667v27.16667z" fill="#1b203e"/><path d="M292.94895,340.79655v-27.16667h27.16667v27.16667z" fill="#44519a"/><path d="M292.94895,313.79655v-27.16667h27.16667v27.16667z" data-paper-data="{&quot;index&quot;:null}" fill="#1b203e"/><path d="M265.94895,313.79655v-27.16667h27.16667v27.16667z" data-paper-data="{&quot;index&quot;:null}" fill="#44519a"/></g><g><path d="M104.19895,340.79655v-27.16667h27.16667v27.16667z" fill="#1b203e"/><path d="M131.19895,340.79655v-27.16667h27.16667v27.16667z" fill="#44519a"/><path d="M131.19895,313.79655v-27.16667h27.16667v27.16667z" data-paper-data="{&quot;index&quot;:null}" fill="#1b203e"/><path d="M104.19895,313.79655v-27.16667h27.16667v27.16667z" data-paper-data="{&quot;index&quot;:null}" fill="#44519a"/></g><g><path d="M158.19895,340.79655v-27.16667h27.16667v27.16667z" fill="#1b203e"/><path d="M185.19895,340.79655v-27.16667h27.16667v27.16667z" fill="#44519a"/><path d="M185.19895,313.79655v-27.16667h27.16667v27.16667z" data-paper-data="{&quot;index&quot;:null}" fill="#1b203e"/><path d="M158.19895,313.79655v-27.16667h27.16667v27.16667z" data-paper-data="{&quot;index&quot;:null}" fill="#44519a"/></g></g></g></g></g></g></g></svg>